<svg width="401" height="230" viewBox="0 0 401 230" fill="none" xmlns="http://www.w3.org/2000/svg">
<g clip-path="url(#clip0_20_780)">
<path d="M307.9 220.4C307.4 218.6 306.1 217 304.4 216.4C302.6 215.8 300.4 216.7 299.9 218.5C298.3 217.2 295.8 218.2 294.5 219.9C292.4 222.6 294 227 294.4 227.2C294.8 227.5 295.8 227.5 295.8 227.5L311.5 227.4C311.5 227.4 314.4 227.2 315.7 226.7C318.4 225.6 320.2 221 318.5 218.7C317.3 217.1 315 216.8 313.1 217.4C311.2 217.9 309.4 219.1 307.9 220.4Z" fill="#6CDD6C"/>
<path d="M295.5 228C295.1 228 294.4 227.9 294 227.6C293.4 227.1 291.8 222.4 294 219.5C294.9 218.3 296.3 217.5 297.7 217.3C298.4 217.2 299 217.3 299.6 217.6C299.9 217 300.5 216.5 301.1 216.1C302.1 215.6 303.4 215.4 304.5 215.8C306.1 216.3 307.4 217.6 308.1 219.4C309.6 218.2 311.3 217.2 312.9 216.7C314.8 216.1 317.4 216.3 318.8 218.2C319.6 219.3 319.8 220.9 319.3 222.6C318.7 224.6 317.3 226.4 315.8 227C314.4 227.6 311.6 227.8 311.4 227.8L295.7 227.9C295.7 228 295.6 228 295.5 228ZM298.1 218.4C298 218.4 297.9 218.4 297.8 218.4C296.8 218.5 295.6 219.2 294.8 220.2C293 222.6 294.3 226.5 294.6 226.9C294.7 227 295.2 227 295.6 227L311.3 226.9C311.3 226.9 314.1 226.7 315.3 226.2C316.5 225.7 317.7 224.2 318.2 222.5C318.6 221.1 318.5 219.8 317.9 219C316.8 217.5 314.6 217.4 313.1 217.9C311.5 218.4 309.7 219.5 308.1 220.9C308 221 307.8 221.1 307.6 221C307.4 221 307.3 220.8 307.2 220.7C306.6 218.9 305.5 217.5 304 217.1C303.2 216.8 302.2 216.9 301.4 217.3C300.7 217.6 300.3 218.2 300.1 218.8C300 219 299.9 219.1 299.8 219.1C299.6 219.1 299.5 219.1 299.3 219C299.1 218.5 298.6 218.4 298.1 218.4Z" fill="#50AA50"/>
<path d="M291.4 219.8C291 220.7 290.8 221.6 290.9 222.6C291 223.1 291.7 223.1 291.7 222.6C291.6 221.8 291.7 220.9 292.1 220.2C292.3 219.7 291.6 219.4 291.4 219.8Z" fill="#50AA50"/>
<path d="M289.1 220.4C288.9 221.3 288.8 222.2 289 223C289.1 223.5 289.9 223.3 289.8 222.8C289.6 222 289.7 221.3 289.9 220.6C290 220.1 289.2 219.9 289.1 220.4Z" fill="#50AA50"/>
<path d="M293.5 218.8C294 218.8 294 218 293.5 218C293 218.1 293 218.8 293.5 218.8Z" fill="#50AA50"/>
<path d="M295.7 222.6C295.7 222.8 295.7 223.1 295.7 223.3C295.7 223.8 296.5 223.8 296.5 223.3C296.5 223.1 296.5 222.8 296.5 222.6C296.5 222.1 295.7 222.1 295.7 222.6Z" fill="#50AA50"/>
<path d="M308.8 223.8C308.8 223.9 308.8 224 308.8 224.1C308.8 224.6 309.6 224.6 309.6 224.1C309.6 224 309.6 223.9 309.6 223.8C309.6 223.3 308.8 223.3 308.8 223.8Z" fill="#50AA50"/>
<path d="M307.4 222.9C307.5 223 307.5 223 307.6 223.1C308 223.5 308.5 222.9 308.1 222.6C308 222.5 308 222.5 307.9 222.4C307.6 222 307 222.5 307.4 222.9Z" fill="#50AA50"/>
<path d="M86.4 205.7H60C59.4 205.7 59 205.2 59 204.7C59 204.1 59.5 203.7 60 203.7H86.3C86.9 203.7 87.3 204.2 87.3 204.7C87.4 205.3 86.9 205.7 86.4 205.7Z" fill="#405B91"/>
<path d="M318.2 114.4H317.4C317.4 113.8 316.9 113.3 316.3 113.3C315.7 113.3 315.2 113.8 315.2 114.4H314.4C314.4 113.4 315.2 112.5 316.3 112.5C317.4 112.5 318.2 113.4 318.2 114.4Z" fill="white"/>
<path d="M320.9 70.6H320.1C320.1 70 319.6 69.5 319 69.5C318.4 69.5 317.9 70 317.9 70.6H317.1C317.1 69.6 317.9 68.7 319 68.7C320 68.8 320.9 69.6 320.9 70.6Z" fill="white"/>
<path d="M227.3 222.8H191.5L192.1 221.4C194.4 215.8 194.7 211.1 194.3 205.6L194.2 204.5L224.4 204.4V205.4C224.4 208.9 225.4 216.9 226.8 221.4L227.3 222.8ZM194.6 220.7H224.5C223.3 216.3 222.6 210.1 222.4 206.4L196.5 206.5C196.7 211.4 196.4 215.8 194.6 220.7Z" fill="#415B91"/>
<path d="M181.2 206.4C154 206.4 132 206.3 131.1 205.9C128.8 205.1 125.7 201.8 125.7 199.6C125.6 194.6 125.4 187.9 125.2 180.1C124.5 156.6 123.4 124.3 124.8 106.5C125 103.2 127.7 100.7 130.9 100.7H131L287.6 100.9C290.9 101 293.6 103.6 293.6 107C293.7 112.2 293.9 117.5 294.1 122.9C294.8 145.5 295.6 168.9 293.1 191C293 191.9 293 192.8 292.9 193.8C292.7 198.4 292.4 204.2 286.5 205.4C283.4 206 225.5 206.4 181.2 206.4ZM130.8 102.4C128.4 102.4 126.5 104.2 126.3 106.6C125 124.4 126 156.5 126.7 180C126.9 187.8 127.2 194.6 127.2 199.5C127.2 200.9 129.6 203.6 131.5 204.3C134.8 205 282.1 204.5 285.9 203.8C290.6 202.9 290.8 198.2 291 193.8C291 192.8 291.1 191.8 291.2 190.9C293.7 168.9 292.9 145.6 292.2 123.1C292 117.7 291.9 112.4 291.7 107.2C291.6 104.7 289.7 102.8 287.3 102.7L130.8 102.4C130.9 102.4 130.8 102.4 130.8 102.4Z" fill="#415B91"/>
<path fill-rule="evenodd" clip-rule="evenodd" d="M283.2 106.4L135.6 106.2C132.9 106.2 130.7 108 130.5 110.4C128.8 130.2 131.1 171.4 131.4 188C131.4 189.6 134.1 192 136 192.6C138.2 193.3 278.5 192.8 281.9 192.2C288.1 191.1 287 184.8 287.5 180.8C290.4 158 288.6 133.2 288 110.9C288 108.3 285.8 106.4 283.2 106.4Z" fill="#B7F9D5"/>
<path d="M240.1 228.5H178.7C176.3 228.5 175 226.6 175 224.7C175 222.8 176.3 220.9 178.7 220.9H240.1C242.5 220.9 243.8 222.8 243.8 224.7C243.8 226.5 242.5 228.5 240.1 228.5ZM178.7 222.5C177.1 222.5 176.7 223.8 176.7 224.6C176.7 225.4 177.1 226.7 178.7 226.7H240.1C241.7 226.7 242.1 225.4 242.1 224.6C242.1 223.8 241.7 222.5 240.1 222.5H178.7Z" fill="#415B91"/>
<path d="M135.9 200.6C138.7 200.6 138.7 196.3 135.9 196.3C133.2 196.3 133.2 200.6 135.9 200.6Z" fill="#415B91"/>
<path d="M144.6 200.6C147.4 200.6 147.4 196.3 144.6 196.3C141.8 196.3 141.8 200.6 144.6 200.6Z" fill="#415B91"/>
<path d="M153.2 200.6C156 200.6 156 196.3 153.2 196.3C150.4 196.3 150.4 200.6 153.2 200.6Z" fill="#415B91"/>
<path d="M209.4 105.1C210.7 105.1 210.7 103.1 209.4 103.1C208.1 103.1 208.1 105.1 209.4 105.1Z" fill="#415B91"/>
<path d="M160.3 49.6L161.7 48.2C162 47.9 162 47.5 161.7 47.2L160.5 46C160.2 45.7 160.1 45.2 160.3 44.8L161.3 42.4C161.4 42 161.8 41.7 162.2 41.7H163.9C164.3 41.7 164.6 41.4 164.6 41V39C164.6 38.6 164.3 38.3 163.9 38.3H162.2C161.8 38.3 161.4 38 161.3 37.6L160.3 35.2C160.1 34.8 160.2 34.3 160.5 34L161.7 32.8C162 32.5 162 32.1 161.7 31.8L160.3 30.4C160 30.1 159.6 30.1 159.3 30.4L158.1 31.6C157.8 31.9 157.3 32 156.9 31.8L154.5 30.8C154.1 30.7 153.8 30.3 153.8 29.9V28.2C153.8 27.8 153.5 27.5 153.1 27.5H151.1C150.7 27.5 150.4 27.8 150.4 28.2V29.9C150.4 30.3 150.1 30.7 149.7 30.8L147.3 31.8C146.9 32 146.4 31.9 146.1 31.6L144.9 30.4C144.6 30.1 144.2 30.1 143.9 30.4L142.5 31.8C142.2 32.1 142.2 32.5 142.5 32.8L143.7 34C144 34.3 144.1 34.8 143.9 35.2L142.9 37.6C142.8 38 142.4 38.3 142 38.3H140.3C139.9 38.3 139.6 38.6 139.6 39V41C139.6 41.4 139.9 41.7 140.3 41.7H142C142.4 41.7 142.8 42 142.9 42.4L143.9 44.8C144.1 45.2 144 45.7 143.7 46L142.5 47.2C142.2 47.5 142.2 47.9 142.5 48.2L143.9 49.6C144.2 49.9 144.6 49.9 144.9 49.6L146.1 48.4C146.4 48.1 146.9 48 147.3 48.2L149.7 49.2C150.1 49.3 150.4 49.7 150.4 50.1V51.8C150.4 52.2 150.7 52.5 151.1 52.5H153.1C153.5 52.5 153.8 52.2 153.8 51.8V50.1C153.8 49.7 154.1 49.3 154.5 49.2L156.9 48.2C157.3 48 157.8 48.1 158.1 48.4L159.3 49.6C159.5 49.9 160 49.9 160.3 49.6ZM152 45.7C148.8 45.7 146.2 43.1 146.2 39.9C146.2 36.7 148.8 34.1 152 34.1C155.2 34.1 157.8 36.7 157.8 39.9C157.8 43.1 155.2 45.7 152 45.7Z" fill="#B6D0FB"/>
<path d="M173.7 55.1L173.3 53.9C173.2 53.7 173 53.5 172.7 53.6L171.7 53.9C171.5 54 171.2 53.9 171 53.6L170 52.3C169.8 52.1 169.8 51.8 169.9 51.6L170.4 50.7C170.5 50.5 170.4 50.2 170.2 50.1L169.1 49.5C168.9 49.4 168.6 49.5 168.5 49.7L168 50.6C167.9 50.8 167.6 51 167.3 50.9L165.7 50.7C165.5 50.7 165.2 50.5 165.1 50.3L164.8 49.3C164.7 49.1 164.5 48.9 164.2 49L163 49.4C162.8 49.5 162.6 49.7 162.7 50L163 51C163.1 51.2 163 51.5 162.7 51.7L161.4 52.7C161.2 52.9 160.9 52.9 160.7 52.8L159.8 52.3C159.6 52.2 159.3 52.3 159.2 52.5L158.6 53.6C158.5 53.8 158.6 54.1 158.8 54.2L159.7 54.7C159.9 54.8 160.1 55.1 160 55.4L159.8 57C159.8 57.2 159.6 57.5 159.4 57.6L158.4 57.9C158.2 58 158 58.2 158.1 58.5L158.5 59.7C158.6 59.9 158.8 60.1 159.1 60L160.1 59.7C160.3 59.6 160.6 59.7 160.8 59.9L161.8 61.2C162 61.4 162 61.7 161.9 61.9L161.4 62.8C161.3 63 161.4 63.3 161.6 63.4L162.7 64C162.9 64.1 163.2 64 163.3 63.8L163.8 62.9C163.9 62.7 164.2 62.5 164.5 62.6L166.1 62.8C166.4 62.8 166.6 63 166.7 63.2L167 64.2C167.1 64.4 167.3 64.6 167.6 64.5L168.8 64.1C169 64 169.2 63.8 169.1 63.5L168.8 62.5C168.7 62.3 168.8 62 169 61.8L170.3 60.8C170.5 60.6 170.8 60.6 171 60.7L171.9 61.2C172.1 61.3 172.4 61.2 172.5 61L173.1 59.9C173.2 59.7 173.1 59.4 172.9 59.3L172 58.8C171.8 58.7 171.6 58.4 171.7 58.1L171.9 56.5C171.9 56.3 172.1 56 172.3 55.9L173.3 55.6C173.7 55.6 173.8 55.3 173.7 55.1ZM169.2 58.5C168.3 60.3 166.1 60.9 164.3 60C162.5 59.1 161.9 56.9 162.8 55.1C163.7 53.3 165.9 52.7 167.7 53.6C169.5 54.5 170.2 56.7 169.2 58.5Z" fill="#B6D0FB"/>
<path d="M232.6 77.8H200C199.4 77.8 199 77.3 199 76.8C199 76.2 199.5 75.8 200 75.8H232.6C233.2 75.8 233.6 76.3 233.6 76.8C233.7 77.4 233.2 77.8 232.6 77.8Z" fill="#405B91"/>
<path d="M166.3 92.7H113.6C113 92.7 112.6 92.2 112.6 91.7C112.6 91.2 113.1 90.7 113.6 90.7H166.3C166.9 90.7 167.3 91.2 167.3 91.7C167.3 92.2 166.8 92.7 166.3 92.7Z" fill="#405B91"/>
<path d="M386.7 120.7H334C333.4 120.7 333 120.2 333 119.7C333 119.2 333.5 118.7 334 118.7H386.7C387.3 118.7 387.7 119.2 387.7 119.7C387.7 120.2 387.3 120.7 386.7 120.7Z" fill="#405B91"/>
<path d="M399.4 229.5H1C0.4 229.5 0 229 0 228.5C0 227.9 0.5 227.5 1 227.5H399.4C400 227.5 400.4 228 400.4 228.5C400.5 229 400 229.5 399.4 229.5Z" fill="#405B91"/>
<path d="M293.3 64.8C291.1 64.8 289 65.7 287.4 67.2C284.7 69.9 284.2 74.1 286.1 77.3L286.2 77.5L277.7 86C277.7 86 277.3 86.4 277.3 87C277.3 87.4 277.5 87.9 277.9 88.3C278.4 88.8 278.8 89 279.3 89C279.9 89 280.3 88.7 280.3 88.7L288.7 80.2L288.9 80.3C290.2 81.1 291.6 81.4 293.1 81.4C295.3 81.4 297.4 80.5 299 79C302.3 75.7 302.3 70.4 299 67.2C297.6 65.7 295.5 64.8 293.3 64.8ZM293.3 79.1C290.1 79.1 287.4 76.5 287.4 73.2C287.4 70 290 67.3 293.3 67.3C296.5 67.3 299.2 69.9 299.2 73.2C299.2 76.4 296.5 79.1 293.3 79.1Z" fill="#B6D0FB"/>
<path d="M290.2 74.4H296.3V72.9H290.2V74.4Z" fill="#B6D0FB"/>
<path d="M112.7 150.5C112.1 150.5 111.7 150 111.7 149.5V145.5C111.7 144.9 112.2 144.5 112.7 144.5C113.3 144.5 113.7 145 113.7 145.5V149.5C113.7 150.1 113.3 150.5 112.7 150.5Z" fill="#405B91"/>
<path d="M114.7 148.5H110.7C110.1 148.5 109.7 148 109.7 147.5C109.7 146.9 110.2 146.5 110.7 146.5H114.7C115.3 146.5 115.7 147 115.7 147.5C115.8 148.1 115.3 148.5 114.7 148.5Z" fill="#405B91"/>
<path d="M206 6.1C205.4 6.1 205 5.6 205 5.1V1C205 0.4 205.5 0 206 0C206.6 0 207 0.5 207 1V5C207 5.6 206.5 6.1 206 6.1Z" fill="#405B91"/>
<path d="M208 4.10001H204C203.4 4.10001 203 3.60001 203 3.10001C203 2.60001 203.5 2.10001 204 2.10001H208C208.6 2.10001 209 2.60001 209 3.10001C209 3.60001 208.6 4.10001 208 4.10001Z" fill="#405B91"/>
<path d="M238.7 215.2C238.6 215.2 238.5 215.2 238.4 215.2L234.5 214.1C233.9 213.9 233.6 213.4 233.8 212.8C234 212.2 234.5 211.9 235.1 212.1L239 213.2C239.6 213.4 239.9 213.9 239.7 214.5C239.5 214.9 239.1 215.2 238.7 215.2Z" fill="#405B91"/>
<path d="M236.2 216.6C236.1 216.6 236 216.6 235.9 216.6C235.3 216.4 235 215.9 235.2 215.3L236.3 211.4C236.5 210.8 237 210.5 237.6 210.7C238.2 210.9 238.5 211.4 238.3 212L237.2 215.9C237 216.3 236.6 216.6 236.2 216.6Z" fill="#405B91"/>
<path d="M218.3 93.2C218.2 93.2 218.1 93.2 218 93.2L214.1 92.1C213.5 91.9 213.2 91.4 213.4 90.8C213.6 90.2 214.1 89.9 214.7 90.1L218.6 91.2C219.2 91.4 219.5 91.9 219.3 92.5C219.1 92.9 218.7 93.2 218.3 93.2Z" fill="#405B91"/>
<path d="M215.8 94.6C215.7 94.6 215.6 94.6 215.5 94.6C214.9 94.4 214.6 93.9 214.8 93.3L215.9 89.4C216.1 88.8 216.6 88.5 217.2 88.7C217.8 88.9 218.1 89.4 217.9 90L216.8 93.9C216.6 94.3 216.2 94.6 215.8 94.6Z" fill="#405B91"/>
<path d="M215.5 69.4C223.453 69.4 229.9 62.9529 229.9 55C229.9 47.0471 223.453 40.6 215.5 40.6C207.547 40.6 201.1 47.0471 201.1 55C201.1 62.9529 207.547 69.4 215.5 69.4Z" fill="#B6D0FB"/>
<path d="M215.5 65.8C221.465 65.8 226.3 60.9647 226.3 55C226.3 49.0353 221.465 44.2 215.5 44.2C209.535 44.2 204.7 49.0353 204.7 55C204.7 60.9647 209.535 65.8 215.5 65.8Z" fill="white"/>
<path d="M215.5 66.2C209.3 66.2 204.3 61.2 204.3 55C204.3 48.8 209.3 43.8 215.5 43.8C221.7 43.8 226.7 48.8 226.7 55C226.7 61.2 221.7 66.2 215.5 66.2ZM215.5 44.6C209.8 44.6 205.1 49.3 205.1 55C205.1 60.7 209.8 65.4 215.5 65.4C221.2 65.4 225.9 60.7 225.9 55C225.9 49.3 221.3 44.6 215.5 44.6Z" fill="#405B91"/>
<path d="M215.5 55.4C215.3 55.4 215.1 55.2 215.1 55V49.5C215.1 49.3 215.3 49.1 215.5 49.1C215.7 49.1 215.9 49.3 215.9 49.5V55C216 55.2 215.8 55.4 215.5 55.4Z" fill="#405B91"/>
<path d="M222 55.4H215.6C215.4 55.4 215.2 55.2 215.2 55C215.2 54.8 215.4 54.6 215.6 54.6H222C222.2 54.6 222.4 54.8 222.4 55C222.4 55.2 222.2 55.4 222 55.4Z" fill="#405B91"/>
<path d="M215.5 45.8C215.721 45.8 215.9 45.6209 215.9 45.4C215.9 45.1791 215.721 45 215.5 45C215.279 45 215.1 45.1791 215.1 45.4C215.1 45.6209 215.279 45.8 215.5 45.8Z" fill="#405B91"/>
<path d="M222.3 48.6C222.521 48.6 222.7 48.4209 222.7 48.2C222.7 47.9791 222.521 47.8 222.3 47.8C222.079 47.8 221.9 47.9791 221.9 48.2C221.9 48.4209 222.079 48.6 222.3 48.6Z" fill="#405B91"/>
<path d="M225.1 55.4C225.321 55.4 225.5 55.2209 225.5 55C225.5 54.7791 225.321 54.6 225.1 54.6C224.879 54.6 224.7 54.7791 224.7 55C224.7 55.2209 224.879 55.4 225.1 55.4Z" fill="#405B91"/>
<path d="M222.3 62.2C222.521 62.2 222.7 62.0209 222.7 61.8C222.7 61.5791 222.521 61.4 222.3 61.4C222.079 61.4 221.9 61.5791 221.9 61.8C221.9 62.0209 222.079 62.2 222.3 62.2Z" fill="#405B91"/>
<path d="M215.5 65C215.721 65 215.9 64.8209 215.9 64.6C215.9 64.3791 215.721 64.2 215.5 64.2C215.279 64.2 215.1 64.3791 215.1 64.6C215.1 64.8209 215.279 65 215.5 65Z" fill="#405B91"/>
<path d="M208.8 62.2C209.021 62.2 209.2 62.0209 209.2 61.8C209.2 61.5791 209.021 61.4 208.8 61.4C208.579 61.4 208.4 61.5791 208.4 61.8C208.4 62.0209 208.579 62.2 208.8 62.2Z" fill="#405B91"/>
<path d="M206 55.4C206.221 55.4 206.4 55.2209 206.4 55C206.4 54.7791 206.221 54.6 206 54.6C205.779 54.6 205.6 54.7791 205.6 55C205.6 55.2209 205.779 55.4 206 55.4Z" fill="#405B91"/>
<path d="M208.8 48.6C209.021 48.6 209.2 48.4209 209.2 48.2C209.2 47.9791 209.021 47.8 208.8 47.8C208.579 47.8 208.4 47.9791 208.4 48.2C208.4 48.4209 208.579 48.6 208.8 48.6Z" fill="#405B91"/>
<path d="M236.6 49.5H230.6C230.4 49.5 230.2 49.3 230.2 49.1C230.2 48.9 230.4 48.7 230.6 48.7H236.6C236.8 48.7 237 48.9 237 49.1C237 49.3 236.9 49.5 236.6 49.5Z" fill="#405B91"/>
<path d="M236.6 61.3H230.6C230.4 61.3 230.2 61.1 230.2 60.9C230.2 60.7 230.4 60.5 230.6 60.5H236.6C236.8 60.5 237 60.7 237 60.9C237 61.1 236.9 61.3 236.6 61.3Z" fill="#405B91"/>
<path d="M244.1 55.4H232.8C232.6 55.4 232.4 55.2 232.4 55C232.4 54.8 232.6 54.6 232.8 54.6H244.1C244.3 54.6 244.5 54.8 244.5 55C244.6 55.2 244.4 55.4 244.1 55.4Z" fill="#405B91"/>
<path d="M263.9 211H257.2V217.7H263.9V211Z" fill="white"/>
<path d="M264.4 218.2H256.7V210.5H264.4V218.2ZM257.7 217.2H263.3V211.6H257.7V217.2Z" fill="#415B91"/>
<path d="M272.3 212.5H266.3C266.1 212.5 265.9 212.3 265.9 212.1C265.9 211.9 266.1 211.7 266.3 211.7H272.3C272.5 211.7 272.7 211.9 272.7 212.1C272.7 212.3 272.5 212.5 272.3 212.5Z" fill="#405B91"/>
<path d="M274.6 217.1H266.4C266.1 217.1 265.8 216.9 265.8 216.7C265.8 216.5 266.1 216.3 266.4 216.3H274.6C274.9 216.3 275.2 216.5 275.2 216.7C275.2 216.9 274.9 217.1 274.6 217.1Z" fill="#405B91"/>
<path d="M277.6 214.7H266.3C266.1 214.7 265.9 214.5 265.9 214.3C265.9 214.1 266.1 213.9 266.3 213.9H277.6C277.8 213.9 278 214.1 278 214.3C278 214.5 277.8 214.7 277.6 214.7Z" fill="#405B91"/>
<path d="M117.2 113H110.5V119.7H117.2V113Z" fill="white"/>
<path d="M117.7 120.2H110V112.5H117.7V120.2ZM111 119.1H116.6V113.5H111V119.1Z" fill="#415B91"/>
<path d="M102 114.4H108C108.2 114.4 108.4 114.2 108.4 114C108.4 113.8 108.2 113.6 108 113.6H102C101.8 113.6 101.6 113.8 101.6 114C101.6 114.3 101.8 114.4 102 114.4Z" fill="#405B91"/>
<path d="M99.7 119H107.9C108.2 119 108.5 118.8 108.5 118.6C108.5 118.4 108.2 118.2 107.9 118.2H99.7C99.4 118.2 99.1 118.4 99.1 118.6C99.1 118.8 99.4 119 99.7 119Z" fill="#405B91"/>
<path d="M96.7 116.6H108C108.2 116.6 108.4 116.4 108.4 116.2C108.4 116 108.2 115.8 108 115.8H96.7C96.5 115.8 96.3 116 96.3 116.2C96.3 116.4 96.5 116.6 96.7 116.6Z" fill="#405B91"/>
<path d="M120.1 171.4C119.8 169.5 118.5 164.6 115.5 166.2C110.7 168.7 116.5 178.2 110.7 179.9C110.4 176.1 109.6 173.5 107.9 173.7C104.4 174 105.3 182.2 105.2 184.1C105.1 185.9 105.1 187.8 105 189.7C100.8 190.4 101.7 179.6 99.1 178.1C95.2 175.8 94.3 181 94.4 183.4C94.6 187.5 95.7 192.4 99.5 194.5C100.8 195.2 103 196 104.7 195.9C104.7 199.2 104.8 202.4 105.4 205.5H105.5L107.8 205.6C107.8 206.6 109.4 206.6 109.4 205.6C109.4 203.6 110.6 194 110.8 185.8C112.7 186.1 115 185.2 116.3 184.2C120.4 181.3 120.8 175.9 120.1 171.4Z" fill="#6CDD6C"/>
<path d="M108.7 206.8C108.5 206.8 108.2 206.7 108 206.6C107.8 206.4 107.6 206.2 107.5 205.9L105.8 205.8H105.2L105.1 205.4C104.6 202.8 104.4 199.8 104.4 196.2C102.5 196.2 100.4 195.3 99.4 194.7C95.3 192.4 94.2 187.2 94.1 183.2C94 181.6 94.4 178.3 96.2 177.2C97.1 176.7 98.2 176.8 99.5 177.5C100.7 178.2 101.2 180.4 101.7 183C102.4 186.5 103.1 189 104.7 189V188.1C104.8 186.6 104.8 185.2 104.9 183.7C104.9 183.4 104.9 183 104.9 182.5C104.8 179.3 104.6 173.2 108 172.9C108.5 172.8 109 173 109.4 173.4C110.3 174.2 111 176 111.2 179C113.3 178 113.2 175.6 113.1 172.7C113 169.8 112.8 166.8 115.4 165.5C116.2 165.1 117 165 117.7 165.4C119.8 166.5 120.5 170.6 120.6 171.1C121.2 174.6 121.4 180.9 116.7 184.3C115.4 185.3 113.2 186.1 111.3 186C111.2 191.4 110.6 197.2 110.3 201.2C110.1 203.2 110 204.7 110 205.4C110 205.9 109.8 206.2 109.4 206.4C109.1 206.7 108.9 206.8 108.7 206.8ZM105.9 205L108.4 205.1V205.5C108.4 205.7 108.5 205.8 108.5 205.8C108.6 205.9 108.8 205.9 108.9 205.8C109 205.7 109.1 205.7 109.1 205.5C109.1 204.8 109.2 203.3 109.4 201.3C109.8 197.3 110.3 191.1 110.4 185.7V185.2L110.9 185.3C112.6 185.6 114.9 184.7 116.1 183.8C120.4 180.6 120.2 174.7 119.6 171.5C119.4 170.1 118.6 167.2 117.2 166.5C116.7 166.3 116.2 166.3 115.7 166.6C113.7 167.7 113.8 170.2 113.9 173C114 176 114.2 179.4 110.8 180.4L110.3 180.6V180.1C110 176.3 109.3 175 108.7 174.5C108.5 174.3 108.2 174.2 107.9 174.2C105.3 174.4 105.5 180.1 105.6 182.9C105.6 183.5 105.6 183.9 105.6 184.2C105.6 185.6 105.5 187.1 105.4 188.6L105.3 190.2L105 190.3C102.2 190.8 101.4 187 100.6 183.6C100.1 181.4 99.7 179.2 98.8 178.7C97.8 178.1 97 178 96.4 178.4C95.1 179.2 94.7 182 94.8 183.6C95 187.3 96 192.3 99.7 194.4C101 195.1 103.1 195.8 104.7 195.7H105.2V196.2C105.3 199.5 105.4 202.4 105.9 205Z" fill="#50AA50"/>
<path d="M115.5 227.5H98.6C97.7 227.5 97 226.9 96.8 226L93 206.3L94.6 206L98.4 225.7C98.4 225.9 98.6 225.9 98.6 225.9H115.5C115.5 225.9 115.7 225.9 115.7 225.7L119.5 206L121.1 206.3L117.3 226C117.2 226.9 116.4 227.5 115.5 227.5Z" fill="#415B91"/>
<path d="M93.2 200H121.2C121.7 200 122.1 200.5 122.1 201.2V205.5C122.1 206.1 121.7 206.7 121.2 206.7H93.2C92.7 206.7 92.3 206.2 92.3 205.5V201.2C92.3 200.5 92.7 200 93.2 200Z" fill="#B6D0FB"/>
<path d="M121.2 207H93.2C92.5 207 91.9 206.3 91.9 205.4V201.1C91.9 200.2 92.5 199.5 93.2 199.5H121.2C121.9 199.5 122.5 200.2 122.5 201.1V205.4C122.5 206.3 121.9 207 121.2 207ZM93.2 200.4C93 200.4 92.8 200.7 92.8 201.1V205.4C92.8 205.8 93 206.1 93.2 206.1H121.2C121.4 206.1 121.6 205.8 121.6 205.4V201.1C121.6 200.7 121.4 200.4 121.2 200.4H93.2Z" fill="#405B91"/>
<path d="M121.2 207H93.2C92.5 207 92 206.3 92 205.5V201.2C92 200.3 92.6 199.7 93.2 199.7H121.2C121.9 199.7 122.4 200.4 122.4 201.2V205.5C122.5 206.3 121.9 207 121.2 207ZM93.2 200.4C93 200.4 92.7 200.7 92.7 201.2V205.5C92.7 206 93 206.3 93.2 206.3H121.2C121.4 206.3 121.7 206 121.7 205.5V201.2C121.7 200.7 121.4 200.4 121.2 200.4H93.2Z" fill="#B6D0FB"/>
<path d="M121.2 207.4H93.2C92.3 207.4 91.5 206.5 91.5 205.4V201.1C91.5 200 92.3 199.1 93.2 199.1H121.2C122.1 199.1 122.9 200 122.9 201.1V205.4C122.9 206.5 122.1 207.4 121.2 207.4ZM93.2 200.8C93.2 200.8 93.1 201 93.1 201.2V205.5C93.1 205.7 93.2 205.9 93.2 205.9H121.2C121.2 205.9 121.3 205.8 121.3 205.5V201.2C121.3 201 121.2 200.8 121.2 200.8H93.2Z" fill="#405B91"/>
<path d="M96.3 183.3C96.8 183.4 97.2 183.4 97.7 183.5C98.2 183.6 98.2 182.8 97.7 182.7C97.2 182.6 96.8 182.6 96.3 182.5C95.8 182.4 95.8 183.2 96.3 183.3Z" fill="#50AA50"/>
<path d="M98.3 177.1C98.3 177.3 98.3 177.6 98.3 177.8C98.3 178.3 99.1 178.3 99.1 177.8C99.1 177.6 99.1 177.3 99.1 177.1C99.1 176.6 98.3 176.6 98.3 177.1Z" fill="#50AA50"/>
<path d="M101 184.3C101.3 184.1 101.7 183.9 102 183.7C102.4 183.5 102 182.8 101.6 183C101.3 183.2 100.9 183.4 100.6 183.6C100.1 183.9 100.5 184.5 101 184.3Z" fill="#50AA50"/>
<path d="M97 193.2C97.4 192.9 97.8 192.6 98.2 192.3C98.6 192 98.2 191.3 97.8 191.6C97.4 191.9 97 192.2 96.6 192.5C96.2 192.8 96.6 193.5 97 193.2Z" fill="#50AA50"/>
<path d="M94.1 186.5C94.4 186.6 94.7 186.7 95 186.8C95.5 187 95.7 186.2 95.2 186C94.9 185.9 94.6 185.8 94.3 185.7C93.8 185.6 93.6 186.4 94.1 186.5Z" fill="#50AA50"/>
<path d="M99.7 190.2C99.9 190.2 100 190.3 100.1 190.4C100.4 190.8 101 190.2 100.6 189.8C100.4 189.5 100 189.4 99.6 189.3C99.2 189.3 99.2 190.1 99.7 190.2Z" fill="#50AA50"/>
<path d="M101.4 193.8C101.3 194.3 101.4 194.8 101.6 195.3C101.8 195.8 102.5 195.4 102.3 194.9C102.2 194.6 102.1 194.3 102.2 194C102.2 193.5 101.5 193.3 101.4 193.8Z" fill="#50AA50"/>
<path d="M105.5 194C105.7 194.1 106 194.1 106.2 194.2C106.7 194.3 106.9 193.6 106.4 193.4C106.2 193.3 105.9 193.3 105.7 193.2C105.2 193.1 105 193.8 105.5 194Z" fill="#50AA50"/>
<path d="M108 186.3C108 186.7 108.1 187.1 108.5 187.4C108.9 187.7 109.4 187.2 109.1 186.8C108.9 186.6 108.8 186.5 108.9 186.2C108.8 185.8 108 185.8 108 186.3Z" fill="#50AA50"/>
<path d="M107 180.8C106.8 181.1 106.7 181.4 106.8 181.8C106.9 182.3 107.6 182.1 107.6 181.6C107.6 181.4 107.6 181.3 107.7 181.2C107.9 180.7 107.3 180.4 107 180.8Z" fill="#50AA50"/>
<path d="M111.2 183C111.2 183.2 111.2 183.5 111.2 183.7C111.2 184.2 112 184.2 112 183.7C112 183.5 112 183.2 112 183C112 182.5 111.2 182.5 111.2 183Z" fill="#50AA50"/>
<path d="M104 181.8C104.2 181.9 104.3 182 104.5 182.1C104.9 182.4 105.3 181.7 104.9 181.4C104.7 181.3 104.6 181.2 104.4 181.1C104 180.9 103.6 181.5 104 181.8Z" fill="#50AA50"/>
<path d="M105.3 175.4C105.5 175.6 105.5 175.8 105.5 176C105.5 176.5 106.3 176.5 106.3 176C106.3 175.6 106.1 175.2 105.8 174.9C105.5 174.4 105 175 105.3 175.4Z" fill="#50AA50"/>
<path d="M107.3 173C107.3 173.3 107.3 173.7 107.3 174C107.3 174.5 108.1 174.5 108.1 174C108.1 173.7 108.1 173.3 108.1 173C108.1 172.5 107.3 172.5 107.3 173Z" fill="#50AA50"/>
<path d="M112.1 177.6C112.2 177.7 112.3 177.8 112.4 178C112.7 178.4 113.3 177.8 112.9 177.4C112.8 177.3 112.7 177.2 112.6 177C112.3 176.7 111.7 177.2 112.1 177.6Z" fill="#50AA50"/>
<path d="M112.9 172.9C113.2 172.9 113.6 172.9 113.9 173C114.4 173 114.4 172.3 113.9 172.2C113.6 172.2 113.2 172.2 112.9 172.1C112.4 172.1 112.4 172.9 112.9 172.9Z" fill="#50AA50"/>
<path d="M114 166.7C114.2 166.9 114.5 167.2 114.7 167.4C115.1 167.8 115.6 167.2 115.2 166.8C115 166.6 114.7 166.3 114.5 166.1C114.2 165.8 113.6 166.4 114 166.7Z" fill="#50AA50"/>
<path d="M117 164.7C117 165.1 117 165.5 117 165.9C117 166.4 117.8 166.4 117.8 165.9C117.8 165.5 117.8 165.1 117.8 164.7C117.7 164.2 117 164.2 117 164.7Z" fill="#50AA50"/>
<path d="M118.4 172C118.5 171.8 118.6 171.7 118.7 171.5C119 171.1 118.3 170.7 118 171.1C117.9 171.3 117.8 171.4 117.7 171.6C117.4 172 118.1 172.4 118.4 172Z" fill="#50AA50"/>
<path d="M115.7 179.6C116 179.5 116.3 179.4 116.6 179.3C117.1 179.1 116.9 178.4 116.4 178.5C116.1 178.6 115.8 178.7 115.5 178.8C115.1 179 115.3 179.8 115.7 179.6Z" fill="#50AA50"/>
<path d="M119.2 178.5C119.5 178.4 119.8 178.4 120.1 178.3C120.6 178.2 120.4 177.4 119.9 177.5C119.6 177.6 119.3 177.6 119 177.7C118.5 177.9 118.7 178.6 119.2 178.5Z" fill="#50AA50"/>
<path d="M117 182.2C117 182.3 117 182.3 117 182.4C117 182.9 117.8 182.9 117.8 182.4C117.8 182.3 117.8 182.3 117.8 182.2C117.7 181.7 117 181.7 117 182.2Z" fill="#50AA50"/>
<path d="M110.3 194.1C110.5 194 110.6 193.9 110.8 193.8C111.2 193.5 110.8 192.8 110.4 193.1C110.2 193.2 110.1 193.3 109.9 193.4C109.5 193.7 109.9 194.3 110.3 194.1Z" fill="#50AA50"/>
<path d="M109.8 196.9C110.1 196.6 110.4 196.4 110.9 196.3C111.4 196.2 111.2 195.4 110.7 195.5C110.2 195.6 109.7 195.9 109.3 196.3C108.9 196.7 109.5 197.3 109.8 196.9Z" fill="#50AA50"/>
<path d="M106.6 197.4C106.7 197.5 106.7 197.6 106.8 197.7C107 198.1 107.7 197.8 107.5 197.3C107.4 197.2 107.4 197.1 107.3 197C107.1 196.6 106.4 197 106.6 197.4Z" fill="#50AA50"/>
<path d="M103.7 198.2C104.1 198.4 104.6 198.5 105 198.4C105.5 198.3 105.3 197.6 104.8 197.6C104.5 197.7 104.3 197.6 104.1 197.5C103.6 197.3 103.2 198 103.7 198.2Z" fill="#50AA50"/>
<path d="M110.1 190.9C110.6 190.8 111.1 190.8 111.7 190.7C112.2 190.6 112.2 189.9 111.7 189.9C111.2 190 110.7 190 110.1 190.1C109.6 190.1 109.6 190.9 110.1 190.9Z" fill="#50AA50"/>
<path d="M143.1 77C145.1 77 145.1 73.9 143.1 73.9C141.1 73.9 141.1 77 143.1 77Z" fill="#405B91"/>
<path d="M311.8 44.6C313.8 44.6 313.8 41.5 311.8 41.5C309.8 41.4 309.8 44.6 311.8 44.6Z" fill="#405B91"/>
<path d="M349.6 155.9C349.8 155.9 350.1 155.9 350.3 155.9C351.1 155.9 351.9 155.2 351.9 154.3C351.9 153.5 351.2 152.7 350.3 152.7C350.1 152.7 349.8 152.7 349.6 152.7C348.8 152.7 348 153.4 348 154.3C348.1 155.2 348.8 155.9 349.6 155.9Z" fill="#405B91"/>
<path d="M81.6 178.7C83.6 178.7 83.6 175.6 81.6 175.6C79.6 175.6 79.6 178.7 81.6 178.7Z" fill="#405B91"/>
<path d="M230.2 29.3C232.2 29.3 232.2 26.2 230.2 26.2C228.2 26.2 228.2 29.3 230.2 29.3Z" fill="#405B91"/>
<path d="M202 169.3C196.8 169.3 191.7 169.3 186.5 169.3C186.2 169.3 185.9 169.3 185.6 169.2C185 169.1 184.7 168.7 184.6 168.1C184.6 167.4 184.9 167 185.5 166.8C185.8 166.7 186.2 166.7 186.5 166.7C196.8 166.7 207.2 166.7 217.5 166.7C217.8 166.7 218.1 166.7 218.4 166.8C219.1 167 219.4 167.4 219.4 168.1C219.4 168.8 219 169.2 218.3 169.3C218 169.4 217.7 169.3 217.4 169.3C212.3 169.3 207.2 169.3 202 169.3Z" fill="#405B91"/>
<path d="M214.6 173.2C210.3 173.2 206 173.2 201.7 173.2C201.4 173.2 201.1 173.2 200.8 173.2C200.1 173.1 199.7 172.6 199.8 172C199.9 171.5 200.3 171.1 200.6 170.8C200.8 170.6 201.3 170.7 201.7 170.7C210.3 170.7 218.9 170.7 227.5 170.7C227.8 170.7 228.2 170.7 228.5 170.8C229.1 171 229.4 171.5 229.4 172.1C229.4 172.8 229 173.2 228.3 173.3C228 173.3 227.7 173.3 227.4 173.3C223.2 173.2 218.9 173.2 214.6 173.2Z" fill="#405B91"/>
<path d="M190.9 173.2C189.3 173.2 187.7 173.2 186.2 173.2C185.1 173.2 184.6 172.8 184.6 171.9C184.6 171.1 185.1 170.6 186.2 170.6C189.4 170.6 192.7 170.6 195.9 170.6C196.9 170.6 197.5 171.1 197.5 171.9C197.5 172.7 196.9 173.2 195.9 173.2C194.2 173.2 192.6 173.2 190.9 173.2Z" fill="#405B91"/>
<path d="M225.7 169.2C225 169.2 224.2 169.2 223.5 169.2C222.6 169.2 222.2 168.7 222.2 167.9C222.2 167.2 222.7 166.6 223.5 166.6C225 166.6 226.6 166.6 228.1 166.6C229 166.6 229.4 167.1 229.4 167.9C229.4 168.7 228.9 169.2 228 169.2C227.3 169.3 226.5 169.3 225.7 169.2Z" fill="#405B91"/>
<path d="M219.3 139.1C217 139.1 214.7 139.1 212.4 139.1C212.4 139.6 212.5 140.2 212.5 140.7C212.5 141.5 212.6 142.4 212.6 143.2C212.6 143.9 212.1 144.5 211.4 144.5C210.7 144.5 210.2 144 210.2 143.2C210.2 141.9 210.1 140.7 210 139.4C210 139.3 210 139.2 210 139.1C206.9 139.1 203.8 139.1 200.7 139.1C200.4 141.5 200.4 143.9 200.7 146.3C200.8 146.3 201 146.3 201.1 146.3C202.7 146.3 204.2 146.3 205.8 146.3C206.6 146.3 207.1 146.8 207.1 147.5C207.1 148.2 206.5 148.7 205.7 148.7C204.2 148.7 202.8 148.7 201.3 148.7C201.2 148.7 201.1 148.7 200.8 148.7C201 149.7 201.2 150.7 201.5 151.6C201.9 153 202.4 154.4 203.2 155.6C203.5 156 203.8 156.4 204.2 156.7C204.5 156.9 204.8 157 205.2 157.1C205.9 157.2 206.5 157.6 206.5 158.3C206.5 159 206 159.5 205.2 159.5C202 159.5 199 158.7 196.3 157C192.2 154.4 189.6 150.8 188.7 146.1C187.5 139.8 189.3 134.4 194.1 130C196.5 127.8 199.5 126.4 202.8 126C208.8 125.2 213.8 127.1 217.9 131.5C220.1 133.9 221.5 136.8 221.9 140.1C222 141.1 222.1 142.1 222.1 143.2C222.1 143.9 221.6 144.5 220.9 144.5C220.2 144.5 219.7 143.9 219.7 143.2C219.7 142.5 219.7 141.8 219.6 141.1C219.6 140.4 219.4 139.8 219.3 139.1ZM198.1 139.1C195.9 139.1 193.6 139.1 191.3 139.1C190.7 141.5 190.7 143.9 191.3 146.3C193.6 146.3 195.9 146.3 198.1 146.3C198.1 143.9 198.1 141.5 198.1 139.1ZM209.6 136.6C209.6 136.5 209.6 136.5 209.6 136.5C209.6 136.3 209.5 136.2 209.5 136C209.1 134.1 208.6 132.2 207.7 130.4C207.3 129.8 206.9 129.2 206.4 128.7C205.7 128 205 128 204.3 128.7C203.9 129.1 203.5 129.6 203.2 130.1C202.4 131.4 201.9 132.8 201.5 134.3C201.3 135.1 201.2 135.9 201 136.7C203.9 136.6 206.7 136.6 209.6 136.6ZM209.6 128.9C211 131.4 211.7 134 212.1 136.7C214.2 136.7 216.3 136.7 218.5 136.7C216.6 132.8 213.7 130.2 209.6 128.9ZM201 128.9C196.9 130.3 194 132.9 192.1 136.7C194.3 136.7 196.3 136.7 198.5 136.7C199 134 199.6 131.3 201 128.9ZM192.2 148.7C193.1 151.7 198.4 156.4 200.9 156.4C199.5 154 198.9 151.4 198.4 148.7C196.4 148.7 194.3 148.7 192.2 148.7Z" fill="#405B91"/>
<path d="M217.5 153.2C217.7 153.4 217.9 153.5 218 153.6C219.3 154.9 220.5 156.1 221.8 157.4C222.4 158.1 222.3 159 221.5 159.4C221 159.6 220.6 159.6 220.1 159.1C218.8 157.8 217.5 156.5 216.2 155.2C216.1 155.1 216 155 215.8 154.9C215.6 155.1 215.4 155.4 215.2 155.6C214 156.8 212.8 158 211.6 159.2C211.2 159.6 210.7 159.7 210.2 159.5C209.7 159.3 209.4 158.8 209.6 158.3C209.7 158 209.8 157.7 210.1 157.5C211.4 156.2 212.6 154.9 213.9 153.7C214 153.6 214.1 153.5 214.2 153.4C214.1 153.2 214 153.1 213.9 153.1C212.6 151.8 211.3 150.5 210 149.2C209.6 148.8 209.5 148.3 209.7 147.8C209.9 147.3 210.4 147 210.9 147.1C211.2 147.2 211.5 147.3 211.7 147.5C213 148.8 214.3 150 215.5 151.3C215.6 151.4 215.7 151.5 215.8 151.6C215.9 151.5 216 151.4 216.1 151.3C217.4 150 218.7 148.7 220 147.4C220.7 146.7 221.8 147 222.1 148C222.2 148.5 222 148.9 221.7 149.2C220.4 150.5 219.1 151.8 217.9 153C217.8 153 217.7 153.1 217.5 153.2Z" fill="#405B91"/>
</g>
<defs>
<clipPath id="clip0_20_780">
<rect width="400.5" height="229.5" fill="white"/>
</clipPath>
</defs>
</svg>
