<svg width="210" height="198" viewBox="0 0 210 198" fill="none" xmlns="http://www.w3.org/2000/svg">
<mask id="mask0_9_558" style="mask-type:luminance" maskUnits="userSpaceOnUse" x="0" y="0" width="210" height="198">
<rect width="210" height="198" rx="30" fill="white"/>
</mask>
<g mask="url(#mask0_9_558)">
<path fill-rule="evenodd" clip-rule="evenodd" d="M209.955 98.9776L111.368 197.955C56.9204 197.955 12.7815 153.641 12.7815 98.9776C12.7815 44.3138 56.9204 0 111.368 0C165.816 0 209.955 44.3138 209.955 98.9776C209.955 153.641 209.955 98.9776 209.955 98.9776Z" fill="#FFCDC8"/>
<path d="M38.3442 45.2264C38.2101 44.8226 38.4335 44.3739 38.8357 44.2842L47.2375 42.5344C47.6844 42.4446 48.0866 42.8036 48.0866 43.2522L46.7459 63.3977C46.7012 64.1605 45.6734 64.2951 45.4052 63.6221L38.3442 45.2264Z" fill="url(#paint0_linear_9_558)"/>
<path d="M54.3881 37.5087C54.4328 37.06 54.835 36.7908 55.282 36.9254L63.5497 39.2136C63.9966 39.3482 64.1753 39.8418 63.9519 40.2456L53.539 57.5644C53.1815 58.1926 52.1983 57.8785 52.2877 57.1157L54.3881 37.5087Z" fill="url(#paint1_linear_9_558)"/>
<path d="M64.5327 50.4307C64.7562 50.0718 65.2477 49.982 65.5606 50.2513L69.4486 53.4817C69.8062 53.7958 69.7615 54.3342 69.404 54.6034L59.6615 61.4232C59.0358 61.8719 58.2761 61.154 58.6783 60.481L64.5327 50.4307Z" fill="url(#paint2_linear_9_558)"/>
<path d="M81.6491 74.7939C85.7254 88.8321 77.6767 103.522 63.6514 107.643L37.9356 115.198C22.3069 119.789 5.92204 110.808 1.38525 95.1637C0.6702 92.696 2.0556 90.1386 4.51357 89.4207L72.1301 69.5444C76.1969 68.3779 80.4425 70.711 81.6491 74.7939Z" fill="url(#paint3_linear_9_558)"/>
<path d="M1.34081 95.1641L2.10055 97.8113C1.3855 95.3436 2.7709 92.7861 5.22887 92.0682L72.8901 72.2368C73.0688 72.192 73.2029 72.1471 73.337 72.1022C75.683 71.5587 77.5043 72.6539 78.4478 74.3007C78.82 74.9503 79.5576 75.3835 80.2757 75.1722C80.9848 74.9635 81.4003 74.2112 81.0734 73.5483C79.4487 70.2535 75.6735 68.5076 72.041 69.5896L4.53216 89.4026C4.5217 89.4056 4.48269 89.4211 4.47178 89.4211C4.47089 89.4211 4.46869 89.4212 4.46783 89.4214C2.01068 90.1398 0.625892 92.6968 1.34081 95.1641Z" fill="#3242A7"/>
<path d="M86.2524 110.329C86.7887 112.213 85.7161 114.187 83.8391 114.77L14.0328 135.275C12.1558 135.813 10.1894 134.736 9.60842 132.852L1.29601 104.271C0.759724 102.387 1.83229 100.413 3.70929 99.8295L73.5156 79.3251C75.3926 78.7867 77.4037 79.8635 77.94 81.748L86.2524 110.329Z" fill="url(#paint4_linear_9_558)"/>
<path d="M15.284 160.446C15.9991 162.914 18.5464 164.305 21.0044 163.587L93.3581 142.364C97.4249 141.153 99.7488 136.891 98.5422 132.852L82.0267 76.1351C81.8184 75.4198 81.0688 75.0097 80.3541 75.22C79.6387 75.4305 79.25 76.1864 79.2808 76.9314C79.359 78.8195 78.426 80.7356 76.1523 81.569C76.0182 81.6139 75.8395 81.6587 75.7054 81.7036L3.30701 102.881C0.893728 103.599 -0.536363 106.156 0.178683 108.624L15.284 160.446Z" fill="#3242A7"/>
<path d="M94.1179 144.967L21.7642 166.234C19.3062 166.952 16.7589 165.561 16.0438 163.093L0.938468 111.271C0.223422 108.803 1.60882 106.246 4.06679 105.528L76.4205 84.3058C80.4873 83.0944 82.8112 78.832 81.6046 74.7939L99.302 135.455C100.509 139.538 98.14 143.8 94.1179 144.967Z" fill="url(#paint5_linear_9_558)"/>
<path d="M24.0881 139.179L10.2788 143.217C8.49117 143.756 6.61417 142.724 6.07789 140.929C4.1504 134.28 7.96116 127.324 14.6021 125.369L19.6638 123.879C23.82 122.668 28.2443 125.091 29.4509 129.308C30.6576 133.526 28.289 137.923 24.0881 139.179Z" fill="#3242A7"/>
<path d="M1.47477 125.091L2.43364 128.4C2.69396 129.298 3.6329 129.816 4.5315 129.556C5.43365 129.296 5.95193 128.351 5.68714 127.45L4.96181 124.982C4.29605 122.717 1.37378 121.704 1.33302 124.065C1.32717 124.403 1.37257 124.749 1.47477 125.091Z" fill="#3242A7"/>
<path fill-rule="evenodd" clip-rule="evenodd" d="M26.3826 130.499L22.5047 135.978C19.9248 136.414 17.4782 134.669 17.04 132.079C16.6019 129.49 18.3381 127.037 20.9179 126.6C23.4978 126.164 25.9444 127.909 26.3826 130.499C26.8208 133.088 26.3826 130.499 26.3826 130.499Z" fill="white"/>
<path d="M184.214 72.1467C184.214 72.1018 184.214 72.1018 184.214 72.057C184.214 71.9672 184.214 71.8775 184.214 71.7429C184.082 66.5468 180.91 63.2549 179.255 61.8853C178.705 61.4299 177.922 61.5357 177.44 62.0631C177.047 62.4934 176.439 62.6548 175.885 62.4762L133.892 48.9502C128.842 47.335 123.435 50.1168 121.826 55.1868L88.9871 157.972C88.5987 159.188 87.9503 160.305 87.087 161.244C85.548 162.92 84.5847 165.179 85.3236 167.331C86.5899 171.018 89.3013 173.333 89.336 173.368C90.4086 174.489 91.7493 175.387 93.3582 175.88L136.976 189.924C142.026 191.539 147.433 188.757 149.042 183.687L183.722 75.108C184.035 74.4349 184.169 73.6722 184.214 72.8646C184.214 72.6402 184.214 72.4159 184.214 72.1467Z" fill="#5D9FE7"/>
<path fill-rule="evenodd" clip-rule="evenodd" d="M154 47L146 55C141.582 55 138 51.4183 138 47C138 42.5817 141.582 39 146 39C150.418 39 154 42.5817 154 47C154 51.4183 154 47 154 47Z" fill="url(#paint6_linear_9_558)"/>
<path d="M91.6692 172.389C86.6192 170.774 83.8484 165.345 85.4572 160.275L120.137 51.6956C121.746 46.6256 127.153 43.8438 132.203 45.459L175.821 59.5025C180.871 61.1178 183.642 66.5467 182.033 71.6167L147.353 180.196C145.745 185.266 140.337 188.048 135.287 186.433L91.6692 172.389Z" fill="url(#paint7_linear_9_558)"/>
<path d="M170.415 61.4986C169.444 61.184 168.402 61.7115 168.08 62.6799C167.544 64.2952 165.846 65.1925 164.192 64.699L138.361 56.3985C136.752 55.8601 135.858 54.1551 136.35 52.495C136.67 51.5306 136.144 50.49 135.177 50.1767L131.255 48.9056C127.591 47.7391 123.658 49.7581 122.451 53.4372L88.0845 160.984C86.9225 164.664 88.9336 168.612 92.5982 169.823L135.635 183.687C139.3 184.854 143.232 182.835 144.439 179.156L178.806 71.6086C180.057 67.9294 178.001 63.9811 174.337 62.7697L170.415 61.4986Z" fill="white"/>
<path d="M158.751 134.576C160.241 129.924 156.157 125.395 151.376 126.4L98.5851 137.49C96.6523 137.896 95.0862 139.309 94.4833 141.189C93.2212 145.127 96.597 148.994 100.669 148.276L153.792 138.905C156.121 138.494 158.03 136.827 158.751 134.576Z" fill="#EDEFFF"/>
<path d="M110.101 92.3196C106.62 103.204 115.892 113.915 127.163 112.028L159.331 106.642C164.731 105.738 169.173 101.892 170.84 96.6764C174.096 86.496 165.682 76.3783 155.078 77.7227L122.722 81.8254C116.832 82.5721 111.91 86.6652 110.101 92.3196Z" fill="#EDEFFF"/>
<path d="M148.193 56.802C147.88 56.7122 147.702 56.3533 147.791 56.0392C147.88 55.7251 148.238 55.5457 148.551 55.6354L156.193 58.1031C156.506 58.1928 156.684 58.5518 156.595 58.8659C156.506 59.1799 156.148 59.3594 155.835 59.2697L148.193 56.802Z" fill="white"/>
<path fill-rule="evenodd" clip-rule="evenodd" d="M160.796 59.8983L159.857 60.8405C159.339 60.8405 158.919 60.4186 158.919 59.8983C158.919 59.3779 159.339 58.9561 159.857 58.9561C160.376 58.9561 160.796 59.3779 160.796 59.8983C160.796 60.4186 160.796 59.8983 160.796 59.8983Z" fill="#F55978"/>
<mask id="mask1_9_558" style="mask-type:luminance" maskUnits="userSpaceOnUse" x="54" y="91" width="99" height="76">
<rect x="54" y="91" width="99" height="76" rx="30" fill="white"/>
</mask>
<g mask="url(#mask1_9_558)">
<path fill-rule="evenodd" clip-rule="evenodd" d="M86.2106 124.888C86.0876 123.659 85.408 122.554 84.3665 121.89L83.6839 121.455C83.4007 121.275 83.067 121.19 82.732 121.213C81.8875 121.271 81.1489 120.649 81.0617 119.807L78.8825 98.7619C78.8425 98.3753 78.6281 98.0282 78.3003 97.8192L77.2202 97.1309C76.7509 96.8317 76.1443 97.2102 76.2068 97.7633C76.2481 98.1295 75.9825 98.4589 75.6159 98.4961L72.734 98.7885C71.5258 98.9112 70.4657 99.6469 69.9282 100.736L57.0727 126.781C56.8747 127.182 56.8108 127.636 56.8903 128.076L57.1039 129.258C57.1749 129.651 56.9346 130.033 56.5497 130.14C55.905 130.318 55.7763 131.176 56.3403 131.535L57.2733 132.13C57.5136 132.283 57.7987 132.35 58.0822 132.321L68.8098 131.216C71.1237 130.978 73.0244 133.017 72.6244 135.308L72.5927 135.49C72.3684 136.775 72.9389 138.069 74.039 138.77C74.6549 139.163 75.3856 139.335 76.112 139.259L78.6371 138.995C81.03 138.744 82.7659 136.6 82.513 134.207L82.2926 132.122C82.1583 130.852 83.0896 129.718 84.3615 129.603C85.6283 129.488 86.5583 128.362 86.4316 127.097L86.2106 124.888ZM71.5764 110.917C71.6872 110.657 72.0716 110.715 72.1007 110.996L73.1648 121.27C73.3322 122.886 72.1585 124.332 70.5426 124.5L70.3034 124.525C67.8108 124.785 66.009 122.197 67.1182 119.949L71.5764 110.917Z" fill="#1D2F9D"/>
<path fill-rule="evenodd" clip-rule="evenodd" d="M80.9616 121.373C82.2237 121.245 83.3504 122.165 83.4768 123.427L83.6658 125.316C83.7918 126.575 82.8748 127.698 81.6166 127.826C80.3534 127.954 79.4351 129.085 79.5686 130.347L79.8271 132.792C80.0602 134.998 78.4603 136.974 76.2549 137.205C74.0526 137.435 72.0798 135.838 71.847 133.636L71.807 133.257C71.5522 130.846 69.393 129.098 66.9819 129.349L58.6252 130.221C56.5142 130.441 54.593 128.99 54.2275 126.899C54.0797 126.054 54.2051 125.183 54.5855 124.413L66.746 99.8167C67.5416 98.2074 69.1075 97.1191 70.8932 96.9342C73.7665 96.6368 76.3363 98.7266 76.6308 101.6L78.4471 119.324C78.5762 120.584 79.7017 121.501 80.9616 121.373ZM67.7677 122.747C69.3876 122.578 70.5644 121.128 70.3972 119.508L69.3325 109.195C69.3035 108.914 68.9192 108.856 68.8085 109.116L64.3426 118.194C63.2358 120.443 65.0396 123.031 67.5331 122.771L67.7677 122.747Z" fill="#7EBCFF"/>
<path fill-rule="evenodd" clip-rule="evenodd" d="M152.552 130.726C152.801 130.162 152.726 129.507 152.358 129.013L151.519 127.887C151.209 127.471 150.579 127.494 150.299 127.93C150.102 128.239 149.708 128.356 149.373 128.207L147.29 127.281C146.222 126.805 144.984 126.913 144.014 127.566L120.063 143.677C119.642 143.96 119.323 144.369 119.15 144.845L118.588 146.395C118.458 146.752 118.067 146.941 117.707 146.82C117.057 146.602 116.513 147.352 116.923 147.902L117.506 148.683C117.609 148.822 117.746 148.931 117.903 149.001L128.38 153.662C130.473 154.593 130.936 157.358 129.26 158.92L129.132 159.04C128.013 160.083 127.858 161.8 128.772 163.027C129.08 163.44 129.49 163.768 129.962 163.977L132.561 165.128C134.779 166.111 137.373 165.109 138.354 162.891L139.201 160.975C139.714 159.816 141.069 159.292 142.229 159.804C143.388 160.317 144.743 159.793 145.256 158.634L146.235 156.423C146.681 155.414 146.549 154.243 145.89 153.359L145.142 152.355C144.979 152.137 144.717 152.018 144.446 152.039C143.85 152.087 143.42 151.481 143.66 150.934L152.552 130.726ZM140.36 137.241C140.577 137.071 140.877 137.304 140.767 137.557L136.587 147.08C135.945 148.542 134.238 149.204 132.778 148.557L132.504 148.435C130.22 147.422 129.942 144.292 132.011 142.892L140.36 137.241Z" fill="#1D2F9D"/>
<path fill-rule="evenodd" clip-rule="evenodd" d="M142.781 151.132C143.941 151.645 144.465 153.001 143.952 154.161L143.18 155.905C142.667 157.064 141.312 157.588 140.153 157.075C138.993 156.562 137.638 157.086 137.125 158.246L136.125 160.507C135.228 162.534 132.858 163.45 130.831 162.552C128.807 161.655 127.892 159.287 128.788 157.262L128.944 156.909C129.924 154.692 128.925 152.099 126.709 151.113L119.011 147.688C117.079 146.829 116.136 144.626 116.847 142.635C117.137 141.822 117.681 141.123 118.397 140.64L141.047 125.404C142.543 124.398 144.451 124.231 146.099 124.962C148.74 126.135 149.934 129.224 148.768 131.868L141.608 148.105C141.097 149.264 141.622 150.619 142.781 151.132ZM130.703 145.734C132.162 146.381 133.869 145.719 134.511 144.258L138.691 134.734C138.801 134.482 138.501 134.249 138.284 134.419L129.935 140.07C127.866 141.47 128.144 144.6 130.428 145.613L130.703 145.734Z" fill="#7EBCFF"/>
<path fill-rule="evenodd" clip-rule="evenodd" d="M122.045 102.373C122.023 102.308 121.985 102.25 121.958 102.188L120.342 98.5395C120.253 98.3397 119.969 98.3427 119.885 98.5442C119.816 98.7092 119.6 98.75 119.471 98.626C117.834 97.0497 115.621 95.9339 112.911 95.3181C108.621 94.3431 105.022 94.9931 102.07 97.3609C99.1175 99.6822 97.0415 103.628 95.796 109.153L94.1352 116.349C93.4776 119.437 93.2783 122.232 93.5372 124.654C93.5539 124.81 93.387 124.922 93.2497 124.845C93.0893 124.756 92.907 124.921 92.9809 125.09L94.6888 128.977C94.7349 129.117 94.8272 129.256 94.8733 129.395C96.4879 132.784 99.4404 134.966 103.731 135.941C108.067 136.963 111.712 136.266 114.618 133.852C117.524 131.484 119.6 127.538 120.846 122.06L122.507 114.771C123.603 109.899 123.478 105.801 122.133 102.566C122.106 102.501 122.067 102.44 122.045 102.373ZM110.235 124.938C109.525 126.967 107.755 128.44 105.631 128.769C104.369 128.964 102.962 128.824 102.204 127.795C101.883 127.359 101.638 126.855 101.47 126.284C100.963 124.52 101.055 122.013 101.793 118.763L104.008 109.107C104.746 106.089 105.714 103.953 106.914 102.746C108.113 101.539 109.636 101.121 111.481 101.539C113.372 101.957 114.618 103.025 115.125 104.743C115.483 105.79 115.589 107.113 115.458 108.697C115.341 110.121 114.935 111.502 114.463 112.851L110.235 124.938Z" fill="#1D2F9D"/>
<path fill-rule="evenodd" clip-rule="evenodd" d="M112.957 130.101C110.051 132.469 106.406 133.165 102.07 132.19C97.7797 131.215 94.8272 129.033 93.2126 125.644C91.598 122.255 91.3673 117.937 92.5206 112.598L94.1353 105.263C95.3808 99.738 97.5029 95.7918 100.409 93.4705C103.362 91.1491 106.96 90.4527 111.25 91.4277C115.541 92.4027 118.493 94.5847 120.108 97.9738C121.722 101.317 121.953 105.681 120.8 111.02L119.185 118.309C117.94 123.787 115.864 127.733 112.957 130.101ZM113.465 101.038C112.911 99.3202 111.712 98.2524 109.82 97.8345C107.975 97.4167 106.453 97.7881 105.253 99.0416C104.054 100.249 103.085 102.384 102.347 105.402L100.132 115.012C99.3943 118.262 99.3021 120.769 99.8095 122.533C100.317 124.298 101.563 125.412 103.454 125.876C105.345 126.34 106.914 125.876 108.113 124.576C109.313 123.276 110.282 121.048 111.02 117.984L113.188 108.513C113.926 105.216 114.018 102.709 113.465 101.038Z" fill="#7EBCFF"/>
</g>
<path fill-rule="evenodd" clip-rule="evenodd" d="M191.364 66.6728C191.364 64.4294 191.766 62.545 192.571 61.0644C193.375 59.5837 194.582 57.9236 196.146 56.1289C197.308 54.7829 198.202 53.6164 198.738 52.719C199.274 51.8217 199.542 50.7897 199.542 49.668C199.542 48.4566 199.095 47.4695 198.202 46.7516C197.308 46.0338 196.101 45.6748 194.537 45.6748C193.152 45.6748 191.811 45.944 190.604 46.5273C189.398 47.1106 187.789 47.9631 185.778 49.1745C184.526 49.8924 183.454 50.2513 182.605 50.2513C181.666 50.2513 180.906 49.8475 180.281 49.0399C179.655 48.2323 179.342 47.2452 179.342 46.1235C179.342 45.3159 179.476 44.6429 179.789 44.1045C180.057 43.5661 180.504 43.0276 181.13 42.5341C183.052 41.0086 185.286 39.7972 187.789 38.9447C190.291 38.0922 192.839 37.6436 195.386 37.6436C198.112 37.6436 200.526 38.1371 202.715 39.0793C204.905 40.0664 206.559 41.3676 207.765 43.0725C208.972 44.7775 209.553 46.6619 209.553 48.7707C209.553 50.3859 209.24 51.8665 208.614 53.2126C207.989 54.5586 207.229 55.7251 206.335 56.7122C205.441 57.6993 204.28 58.9107 202.805 60.3914C201.151 61.9168 199.9 63.218 199.051 64.2499C198.202 65.2819 197.71 66.4485 197.487 67.7047C197.308 68.5572 196.95 69.1854 196.414 69.634C195.878 70.0827 195.207 70.3071 194.403 70.3071C193.464 70.3071 192.705 69.993 192.168 69.32C191.632 68.647 191.364 67.7945 191.364 66.6728ZM188.995 79.46C188.995 77.8448 189.532 76.4988 190.56 75.4219C191.632 74.3451 192.928 73.8067 194.582 73.8067C196.146 73.8067 197.487 74.3451 198.514 75.4219C199.587 76.4988 200.079 77.8448 200.079 79.46C200.079 81.0752 199.542 82.4213 198.514 83.4981C197.442 84.5749 196.146 85.1133 194.582 85.1133C192.928 85.1133 191.587 84.5749 190.56 83.4981C189.487 82.4213 188.995 81.0752 188.995 79.46Z" fill="url(#paint8_linear_9_558)"/>
<path fill-rule="evenodd" clip-rule="evenodd" d="M16 75L11 80C8.23858 80 6 77.7614 6 75C6 72.2386 8.23858 70 11 70C13.7614 70 16 72.2386 16 75C16 77.7614 16 75 16 75Z" fill="url(#paint9_linear_9_558)"/>
<path fill-rule="evenodd" clip-rule="evenodd" d="M67 181L58 190C53.0294 190 49 185.971 49 181C49 176.029 53.0294 172 58 172C62.9706 172 67 176.029 67 181C67 185.971 67 181 67 181Z" fill="url(#paint10_linear_9_558)"/>
<path fill-rule="evenodd" clip-rule="evenodd" d="M90 18.5L83.5 25C79.9101 25 77 22.0899 77 18.5C77 14.9101 79.9101 12 83.5 12C87.0899 12 90 14.9101 90 18.5C90 22.0899 90 18.5 90 18.5Z" fill="url(#paint11_linear_9_558)"/>
<path fill-rule="evenodd" clip-rule="evenodd" d="M189 137L182 144C178.134 144 175 140.866 175 137C175 133.134 178.134 130 182 130C185.866 130 189 133.134 189 137C189 140.866 189 137 189 137Z" fill="url(#paint12_linear_9_558)"/>
<path fill-rule="evenodd" clip-rule="evenodd" d="M189 167.5L181.5 175C177.358 175 174 171.642 174 167.5C174 163.358 177.358 160 181.5 160C185.642 160 189 163.358 189 167.5C189 171.642 189 167.5 189 167.5Z" fill="url(#paint13_linear_9_558)"/>
</g>
<defs>
<linearGradient id="paint0_linear_9_558" x1="38.3052" y1="42.5205" x2="38.3052" y2="64.0567" gradientUnits="userSpaceOnUse">
<stop stop-color="#FB5072"/>
<stop offset="1" stop-color="#FFA9A0"/>
</linearGradient>
<linearGradient id="paint1_linear_9_558" x1="52.282" y1="36.8906" x2="52.282" y2="57.8997" gradientUnits="userSpaceOnUse">
<stop stop-color="#FB5072"/>
<stop offset="1" stop-color="#FFA9A0"/>
</linearGradient>
<linearGradient id="paint2_linear_9_558" x1="58.5659" y1="50.0947" x2="58.5659" y2="61.5629" gradientUnits="userSpaceOnUse">
<stop stop-color="#FB5072"/>
<stop offset="1" stop-color="#FFA9A0"/>
</linearGradient>
<linearGradient id="paint3_linear_9_558" x1="-12.8719" y1="69.2803" x2="-12.8272" y2="140.946" gradientUnits="userSpaceOnUse">
<stop stop-color="#4C61E1"/>
<stop offset="0.0001" stop-color="#FFA9A0"/>
<stop offset="1" stop-color="#F55978"/>
</linearGradient>
<linearGradient id="paint4_linear_9_558" x1="37.7788" y1="91.3026" x2="-2.22373" y2="190.049" gradientUnits="userSpaceOnUse">
<stop stop-color="#6BD984"/>
<stop offset="1" stop-color="#6BCB80"/>
</linearGradient>
<linearGradient id="paint5_linear_9_558" x1="-15.0874" y1="74.855" x2="-14.9742" y2="195.84" gradientUnits="userSpaceOnUse">
<stop stop-color="#FFA9A0"/>
<stop offset="1" stop-color="#FB5072"/>
</linearGradient>
<linearGradient id="paint6_linear_9_558" x1="138" y1="39" x2="138" y2="55" gradientUnits="userSpaceOnUse">
<stop stop-color="#FB5072"/>
<stop offset="1" stop-color="#FFA9A0"/>
</linearGradient>
<linearGradient id="paint7_linear_9_558" x1="85" y1="45" x2="85" y2="186.892" gradientUnits="userSpaceOnUse">
<stop stop-color="#89C1FF"/>
<stop offset="1" stop-color="#65ADFD"/>
</linearGradient>
<linearGradient id="paint8_linear_9_558" x1="179.354" y1="25.827" x2="150.615" y2="62.5359" gradientUnits="userSpaceOnUse">
<stop stop-color="#FB5072"/>
<stop offset="1" stop-color="#F55978"/>
</linearGradient>
<linearGradient id="paint9_linear_9_558" x1="6" y1="70" x2="6" y2="80" gradientUnits="userSpaceOnUse">
<stop stop-color="#FB5072"/>
<stop offset="1" stop-color="#FFA9A0"/>
</linearGradient>
<linearGradient id="paint10_linear_9_558" x1="49" y1="172" x2="49" y2="190" gradientUnits="userSpaceOnUse">
<stop stop-color="#FB5072"/>
<stop offset="1" stop-color="#FFA9A0"/>
</linearGradient>
<linearGradient id="paint11_linear_9_558" x1="77" y1="12" x2="77" y2="25" gradientUnits="userSpaceOnUse">
<stop stop-color="#FB5072"/>
<stop offset="1" stop-color="#FFA9A0"/>
</linearGradient>
<linearGradient id="paint12_linear_9_558" x1="175" y1="130" x2="175" y2="144" gradientUnits="userSpaceOnUse">
<stop stop-color="#FB5072"/>
<stop offset="1" stop-color="#FFA9A0"/>
</linearGradient>
<linearGradient id="paint13_linear_9_558" x1="174" y1="160" x2="174" y2="175" gradientUnits="userSpaceOnUse">
<stop stop-color="#FB5072"/>
<stop offset="1" stop-color="#FFA9A0"/>
</linearGradient>
</defs>
</svg>
